PathFileType	4	(X/Y/Z)	C:\Users\chris\Documents\GitHub\baseballds\vids\pitch6_Sports2D\pitch6_Sports2D_px_person00.trc
DataRate	CameraRate	NumFrames	NumMarkers	Units	OrigDataRate	OrigDataStartFrame	OrigNumFrames
30	30	6	22	m	30	139	186
Frame#	Time	Hip			RHip			RKnee			RAnkle			RBigToe			RSmallToe			RHeel			LHip			LKnee			LAnkle			LBigToe			LSmallToe			LHeel			Neck			Head			Nose			RShoulder			RElbow			RWrist			LShoulder			LElbow			LWrist		
		X1	Y1	Z1	X2	Y2	Z2	X3	Y3	Z3	X4	Y4	Z4	X5	Y5	Z5	X6	Y6	Z6	X7	Y7	Z7	X8	Y8	Z8	X9	Y9	Z9	X10	Y10	Z10	X11	Y11	Z11	X12	Y12	Z12	X13	Y13	Z13	X14	Y14	Z14	X15	Y15	Z15	X16	Y16	Z16	X17	Y17	Z17	X18	Y18	Z18	X19	Y19	Z19	X20	Y20	Z20	X21	Y21	Z21	X22	Y22	Z22
139	4.633333333333333	627.0712252642245	532.3958813827778	0.0	611.7436137292884	534.4534507770991	0.0	603.4683502152554	608.5474856476716	0.0	597.6037720386427	678.658344041269	0.0	603.1919216995008	701.4406597152336	0.0	592.3971179800664	700.9263863794476	0.0	594.6622536228922	690.0722828023725	0.0	641.9036053193262	532.7560384818771	0.0	636.1360589743883	604.9772633404352	0.0	634.527054682735	668.5954581336239	0.0	656.9073075285825	683.9289998629083	0.0	657.0264345715499	679.5210742611536	0.0	627.261850163889	681.798649326282	0.0	625.7714689465788	416.30990485309746	0.0	634.2001377916713	365.7533442166046	0.0	639.6153735753104	396.4600166631725	0.0	594.4215709099936	433.92183691684863	0.0	568.5688213072915	480.0173730094484	0.0	585.881153730807	523.1479262519922	0.0	649.5427162589671	438.863409743733	0.0	644.7292863241436	479.14936238392727	0.0	646.4908341771969	514.0846696947407	0.0
140	4.666666666666667	625.6225784093785	531.5296874691235	0.0	609.9607487670254	533.4365582885231	0.0	601.6092039359563	608.2499722490999	0.0	596.5336203112524	678.7487107348591	0.0	598.6892167179852	701.6963935888878	0.0	588.8851037188689	700.6933312379205	0.0	594.0733707359989	690.0563887809574	0.0	640.6822348561907	531.5524558026856	0.0	634.6116228414343	604.498652937399	0.0	633.0259761354083	668.4780936210259	0.0	659.5427921987472	683.0150116800187	0.0	657.6828737903129	678.20603005609	0.0	625.5385364031462	681.1667143637833	0.0	624.3480246226145	414.72283524683075	0.0	632.3088282506238	364.29558704534537	0.0	637.6675208915267	394.827785445779	0.0	592.5147860475977	433.03452956814704	0.0	566.7675810401008	479.32492666061046	0.0	584.402106233504	522.0061630246158	0.0	648.3073241615026	437.29404315483004	0.0	644.1261327499577	477.74652513746173	0.0	645.764279342651	511.0588006232621	0.0
141	4.7	623.9692591939046	530.2720011588367	0.0	608.2884598886087	532.4159632734502	0.0	599.9557786371354	607.1710461979706	0.0	595.3567700571249	677.9229287107496	0.0	596.4476711329547	701.1926414210868	0.0	586.9056154110067	699.6561470130944	0.0	593.0935420086693	689.2133862223969	0.0	638.9357798149377	530.397706875037	0.0	632.9890251765394	603.5949491473262	0.0	631.7152690384095	667.517845153114	0.0	661.4649636142742	681.4487863258659	0.0	657.9780698870941	676.5605934094118	0.0	624.3921930815842	680.1328595597504	0.0	622.8162349865624	413.37921606256003	0.0	630.4854500692941	363.06589743788237	0.0	635.9397347067213	393.2579105847623	0.0	590.4438795520452	432.2559472024452	0.0	564.7775995558122	478.40519126487015	0.0	582.5583537593134	520.866884596679	0.0	646.8985162509003	435.54177386005256	0.0	644.4434736316189	475.95715644711004	0.0	646.0508264681057	508.56025890905954	0.0
142	4.733333333333333	622.3443950226931	528.6580347974732	0.0	606.5747136793552	530.7678460835243	0.0	598.2471768403404	605.6089323053419	0.0	593.7658715348017	676.8823306470624	0.0	594.6697529348797	700.3745677122413	0.0	585.0639315168647	698.486687075259	0.0	591.832439994054	688.1806423263687	0.0	637.0054368929451	528.7975707023126	0.0	631.2594748651363	602.2691977634174	0.0	630.1091525001805	666.2227539133203	0.0	660.7012215215951	680.2087888435728	0.0	657.0616918096681	675.4622179158986	0.0	622.9374875706033	678.8622008905022	0.0	621.0499994207205	412.30062093363415	0.0	628.7735651160757	361.597082054517	0.0	634.1495013126248	392.1019550077244	0.0	588.491997108847	431.04764873811393	0.0	562.5644912907965	477.21164024525467	0.0	580.45882098128	519.9202159126095	0.0	645.3746072998786	434.0013187673652	0.0	644.6889298166064	474.56296468123446	0.0	645.8766806769992	507.20005571559454	0.0
143	4.766666666666667	620.5877400838556	526.887870070724	0.0	604.6942197547805	528.5088997632795	0.0	596.2622437447768	604.1185128904613	0.0	591.7480302046324	675.7780177881928	0.0	592.8143672177753	699.0424015798546	0.0	582.9851489286887	697.0951506916181	0.0	590.3457930983252	687.032342331825	0.0	635.0768582097904	526.7293852300159	0.0	629.335824381922	600.8534522968179	0.0	627.9924338770021	665.3084789446807	0.0	658.5031745584838	679.8919133116478	0.0	655.5646511249636	675.2077571671348	0.0	621.0293698855377	677.532007045651	0.0	619.1176131377	411.36856215294483	0.0	626.9455250343685	359.80166461474016	0.0	632.3502779609228	391.29869902838834	0.0	586.602898690976	429.51059618745563	0.0	560.3235592293935	475.8214904983705	0.0	578.3013630965704	519.0736194347328	0.0	643.8426863552125	432.82790730853526	0.0	643.766914112439	473.6843580195007	0.0	644.2827411194908	506.6984554506068	0.0
144	4.8	618.5498894022725	525.5715148985519	0.0	602.736906296856	526.8753518861254	0.0	594.2495577073737	603.1256191232637	0.0	589.6264983133241	674.4797352732974	0.0	591.1047635239661	697.7083040814124	0.0	581.144986550007	695.6476206641911	0.0	588.5130838893227	685.7114065983258	0.0	633.2569562915022	525.1037952158114	0.0	627.3811748815732	599.7171253949612	0.0	625.9580828960623	664.6127112265559	0.0	656.610849225859	679.5572505957166	0.0	653.8232279824683	674.7716125943709	0.0	619.2692333809296	676.2718288900383	0.0	617.1958679552422	410.4668933982891	0.0	624.8719908902588	358.3666192274584	0.0	630.7197280022749	390.3768295623445	0.0	584.4421547431931	428.2874795862939	0.0	558.2776118734747	474.58553118751877	0.0	576.149818037207	517.9847322014182	0.0	642.1922503853302	431.84126014819134	0.0	642.0793861596708	472.74777534606767	0.0	642.2826360809524	506.056318209687	0.0
